<svg width="99" height="170" viewBox="0 0 99 170" fill="none" xmlns="http://www.w3.org/2000/svg">
<g clip-path="url(#clip0_77_3794)">
<path d="M98.857 40.3926H97.7693V14.8078C97.7693 12.8632 97.3232 10.9377 96.4564 9.14111C95.5897 7.34454 94.3193 5.71214 92.7178 4.33711C91.1163 2.96208 89.2151 1.87134 87.1226 1.12718C85.0301 0.383019 82.7874 1.64761e-06 80.5226 0H17.3898C12.8157 -7.48672e-06 8.42893 1.56008 5.19454 4.33708C1.96014 7.11407 0.143076 10.8805 0.143066 14.8078V155.168C0.143064 157.113 0.589164 159.038 1.45589 160.835C2.32262 162.631 3.593 164.264 5.1945 165.639C6.79601 167.014 8.69727 168.104 10.7897 168.849C12.8822 169.593 15.1249 169.976 17.3898 169.976H80.5225C85.0966 169.976 89.4834 168.416 92.7178 165.639C95.9522 162.862 97.7692 159.095 97.7692 155.168V58.6043H98.857V40.3926Z" fill="#3F3D56"/>
<path d="M81.2183 3.85242H72.9774C73.3563 4.65016 73.501 5.51568 73.3986 6.37273C73.2962 7.22978 72.9499 8.05206 72.3902 8.76713C71.8305 9.4822 71.0746 10.0681 70.189 10.4733C69.3034 10.8784 68.3154 11.0903 67.3119 11.0904H31.144C30.1406 11.0903 29.1525 10.8784 28.2669 10.4733C27.3814 10.0681 26.6254 9.4822 26.0657 8.76713C25.506 8.05206 25.1597 7.22978 25.0573 6.37273C24.9549 5.51568 25.0996 4.65016 25.4785 3.85242H17.7815C16.0901 3.85242 14.4153 4.13845 12.8527 4.69418C11.2901 5.24991 9.87021 6.06445 8.67422 7.09131C7.47824 8.11817 6.52953 9.33722 5.88226 10.6789C5.235 12.0205 4.90186 13.4585 4.90186 14.9107V155.065C4.90185 156.517 5.235 157.955 5.88226 159.297C6.52953 160.638 7.47823 161.858 8.67421 162.884C9.8702 163.911 11.29 164.726 12.8527 165.282C14.4153 165.837 16.0901 166.123 17.7815 166.123H81.2183C82.9097 166.123 84.5845 165.837 86.1471 165.282C87.7097 164.726 89.1296 163.911 90.3256 162.884C91.5216 161.858 92.4703 160.638 93.1175 159.297C93.7648 157.955 94.0979 156.517 94.0979 155.065V14.9107C94.0979 13.4585 93.7648 12.0205 93.1175 10.6789C92.4703 9.33722 91.5216 8.11817 90.3256 7.09131C89.1296 6.06445 87.7097 5.24991 86.1471 4.69418C84.5845 4.13845 82.9097 3.85241 81.2183 3.85242Z" fill="white"/>
<path d="M119.092 170H-20.0922C-20.1891 170 -20.282 169.967 -20.3505 169.908C-20.419 169.849 -20.4575 169.77 -20.4575 169.686C-20.4575 169.603 -20.419 169.523 -20.3505 169.465C-20.282 169.406 -20.1891 169.373 -20.0922 169.373H119.092C119.189 169.373 119.282 169.406 119.351 169.465C119.419 169.523 119.458 169.603 119.458 169.686C119.458 169.77 119.419 169.849 119.351 169.908C119.282 169.967 119.189 170 119.092 170Z" fill="#CBCBCB"/>
<path d="M49.5 108.424C66.5376 108.424 80.3493 96.565 80.3493 81.9368C80.3493 67.3085 66.5376 55.45 49.5 55.45C32.4624 55.45 18.6506 67.3085 18.6506 81.9368C18.6506 96.565 32.4624 108.424 49.5 108.424Z" fill="#0F3971"/>
<path d="M46.4431 92.0407C45.7491 92.0417 45.0735 91.849 44.5182 91.4915L44.4838 91.4693L37.2338 86.7076C36.898 86.4866 36.6162 86.2109 36.4045 85.8964C36.1928 85.5819 36.0553 85.2346 35.9999 84.8745C35.9445 84.5144 35.9723 84.1484 36.0816 83.7974C36.1909 83.4465 36.3797 83.1175 36.6371 82.8292C36.8945 82.5409 37.2156 82.299 37.5819 82.1172C37.9482 81.9354 38.3527 81.8174 38.7721 81.7698C39.1916 81.7223 39.6178 81.7461 40.0266 81.84C40.4353 81.9338 40.8185 82.0959 41.1543 82.3169L45.8502 85.4088L56.9471 72.979C57.2044 72.6908 57.5253 72.449 57.8915 72.2673C58.2576 72.0856 58.6619 71.9676 59.0812 71.9201C59.5005 71.8725 59.9265 71.8963 60.3351 71.9902C60.7437 72.084 61.1267 72.246 61.4623 72.4669L61.4633 72.4675L61.3944 72.5496L61.4651 72.4675C62.1423 72.9143 62.5853 73.5736 62.697 74.3005C62.8087 75.0275 62.5799 75.7628 62.0609 76.3451L49.0086 90.9587C48.7066 91.2954 48.3183 91.5679 47.8739 91.755C47.4295 91.942 46.9409 92.0387 46.4459 92.0375L46.4431 92.0407Z" fill="white"/>
</g>
<defs>
<clipPath id="clip0_77_3794">
<rect width="99" height="170" fill="white"/>
</clipPath>
</defs>
</svg>
