<svg width="142" height="140" viewBox="0 0 142 140" fill="none" xmlns="http://www.w3.org/2000/svg">
<g clip-path="url(#clip0_52_710)">
<path d="M90.1473 31.4855H51.8845C51.0126 31.4866 50.1766 31.8369 49.5601 32.4597C48.9435 33.0824 48.5967 33.9267 48.5956 34.8074V120.7L48.1571 120.835L38.7706 123.738C38.3258 123.875 37.8453 123.828 37.4346 123.608C37.024 123.388 36.7167 123.011 36.5803 122.562L8.65979 30.4469C8.52392 29.9976 8.57023 29.5121 8.78854 29.0973C9.00686 28.6824 9.37932 28.3721 9.82407 28.2345L24.2886 23.7611L66.2219 10.7969L80.6863 6.32345C80.9065 6.25503 81.1378 6.23112 81.3671 6.25309C81.5964 6.27506 81.8191 6.34249 82.0226 6.45151C82.226 6.56053 82.4062 6.709 82.5528 6.88843C82.6993 7.06786 82.8094 7.27472 82.8768 7.49718L90.0136 31.0426L90.1473 31.4855Z" fill="#F2F2F2"/>
<path d="M98.4973 31.043L89.8957 2.66538C89.7526 2.19256 89.5187 1.75285 89.2073 1.37138C88.8958 0.989916 88.513 0.674169 88.0808 0.442182C87.6485 0.210196 87.1752 0.0665146 86.6879 0.0193554C86.2006 -0.0278038 85.7089 0.0224828 85.2409 0.167337L64.9046 6.45453L22.9736 19.4209L2.63734 25.7103C1.69262 26.0033 0.901601 26.6629 0.437899 27.5444C-0.0258028 28.4259 -0.1243 29.4571 0.164033 30.4119L29.5623 127.395C29.7965 128.166 30.2691 128.84 30.9108 129.32C31.5524 129.799 32.3293 130.058 33.1275 130.059C33.4969 130.059 33.8642 130.003 34.2171 129.893L48.1576 125.583L48.5962 125.446V124.983L48.1576 125.118L34.0878 129.47C33.2539 129.727 32.3533 129.639 31.5834 129.226C30.8135 128.813 30.2373 128.108 29.9811 127.267L0.5851 30.2812C0.458169 29.8642 0.41393 29.426 0.454915 28.9916C0.4959 28.5573 0.621301 28.1354 0.823944 27.7502C1.02659 27.3649 1.30249 27.0237 1.63585 26.7463C1.96921 26.4688 2.35348 26.2605 2.76666 26.1333L23.1029 19.8439L65.034 6.87973L85.3703 0.590326C85.6837 0.493725 86.0095 0.444471 86.3372 0.444163C87.0404 0.445757 87.7246 0.674735 88.2896 1.09756C88.8546 1.52038 89.2707 2.11483 89.477 2.79383L98.039 31.043L98.175 31.4859H98.6311L98.4973 31.043Z" fill="#3F3D56"/>
<path d="M26.8988 28.307C26.4762 28.3067 26.0649 28.1696 25.7251 27.9158C25.3853 27.6621 25.1349 27.305 25.0107 26.897L22.1866 17.5799C22.1107 17.3296 22.0844 17.0667 22.1091 16.8061C22.1338 16.5456 22.2091 16.2925 22.3307 16.0613C22.4523 15.8302 22.6178 15.6255 22.8177 15.4589C23.0176 15.2924 23.248 15.1672 23.4958 15.0906L62.072 3.16206C62.5725 3.00782 63.113 3.06043 63.5751 3.30833C64.0372 3.55623 64.383 3.97917 64.5367 4.48432L67.3608 13.8016C67.5134 14.307 67.4613 14.853 67.2159 15.3197C66.9704 15.7863 66.5518 16.1356 66.0517 16.2909L27.4754 28.2195C27.2886 28.2774 27.0943 28.3069 26.8988 28.307Z" fill="#0F3971"/>
<path d="M41.6928 9.95555C44.1147 9.95555 46.078 7.97255 46.078 5.52639C46.078 3.08023 44.1147 1.09723 41.6928 1.09723C39.2709 1.09723 37.3076 3.08023 37.3076 5.52639C37.3076 7.97255 39.2709 9.95555 41.6928 9.95555Z" fill="#0F3971"/>
<path d="M41.6928 8.33111C43.2264 8.33111 44.4697 7.07541 44.4697 5.52642C44.4697 3.97744 43.2264 2.72174 41.6928 2.72174C40.1592 2.72174 38.916 3.97744 38.916 5.52642C38.916 7.07541 40.1592 8.33111 41.6928 8.33111Z" fill="white"/>
<path d="M132.133 128.927H58.0239C57.5297 128.927 57.056 128.728 56.7066 128.375C56.3573 128.022 56.1607 127.544 56.1602 127.045V37.3542C56.1607 36.8551 56.3572 36.3767 56.7066 36.0238C57.056 35.6709 57.5297 35.4724 58.0239 35.4718H132.133C132.627 35.4724 133.101 35.6709 133.451 36.0238C133.8 36.3767 133.996 36.8551 133.997 37.3542V127.045C133.996 127.544 133.8 128.022 133.451 128.375C133.101 128.728 132.627 128.927 132.133 128.927Z" fill="#E6E6E6"/>
<path d="M98.0386 31.0426H51.8846C50.8965 31.044 49.9492 31.4411 49.2505 32.1468C48.5518 32.8526 48.1586 33.8093 48.1572 34.8074V125.118L48.5957 124.983V34.8074C48.5968 33.9267 48.9437 33.0824 49.5602 32.4597C50.1768 31.8369 51.0127 31.4866 51.8846 31.4855H98.1746L98.0386 31.0426ZM138.273 31.0426H51.8846C50.8965 31.044 49.9492 31.4411 49.2505 32.1468C48.5518 32.8526 48.1586 33.8093 48.1572 34.8074V136.235C48.1586 137.233 48.5518 138.19 49.2505 138.896C49.9492 139.601 50.8965 139.999 51.8846 140H138.273C139.261 139.999 140.208 139.601 140.907 138.896C141.605 138.19 141.999 137.233 142 136.235V34.8074C141.999 33.8093 141.605 32.8526 140.907 32.1468C140.208 31.4411 139.261 31.044 138.273 31.0426ZM141.562 136.235C141.56 137.116 141.214 137.96 140.597 138.583C139.98 139.206 139.145 139.556 138.273 139.557H51.8846C51.0127 139.556 50.1768 139.206 49.5602 138.583C48.9437 137.96 48.5968 137.116 48.5957 136.235V34.8074C48.5968 33.9267 48.9437 33.0824 49.5602 32.4597C50.1768 31.8369 51.0127 31.4866 51.8846 31.4855H138.273C139.145 31.4866 139.98 31.8369 140.597 32.4597C141.214 33.0824 141.56 33.9267 141.562 34.8074V136.235Z" fill="#3F3D56"/>
<path d="M115.251 40.7868H74.9069C74.3837 40.7862 73.8822 40.576 73.5122 40.2024C73.1423 39.8287 72.9342 39.3221 72.9336 38.7937V29.0495C72.9342 28.5211 73.1423 28.0145 73.5122 27.6408C73.8822 27.2672 74.3837 27.057 74.9069 27.0564H115.251C115.774 27.057 116.275 27.2672 116.645 27.6408C117.015 28.0145 117.223 28.5211 117.224 29.0495V38.7937C117.223 39.3221 117.015 39.8287 116.645 40.2024C116.275 40.576 115.774 40.7862 115.251 40.7868Z" fill="#0F3971"/>
<path d="M95.0785 27.7207C97.5004 27.7207 99.4637 25.7377 99.4637 23.2916C99.4637 20.8454 97.5004 18.8624 95.0785 18.8624C92.6567 18.8624 90.6934 20.8454 90.6934 23.2916C90.6934 25.7377 92.6567 27.7207 95.0785 27.7207Z" fill="#0F3971"/>
<path d="M95.0787 25.9894C96.5538 25.9894 97.7497 24.7815 97.7497 23.2916C97.7497 21.8016 96.5538 20.5938 95.0787 20.5938C93.6036 20.5938 92.4077 21.8016 92.4077 23.2916C92.4077 24.7815 93.6036 25.9894 95.0787 25.9894Z" fill="white"/>
</g>
<defs>
<clipPath id="clip0_52_710">
<rect width="142" height="140" fill="white"/>
</clipPath>
</defs>
</svg>
